<svg xmlns="http://www.w3.org/2000/svg" width="24" height="24" fill="black" viewBox="0 0 24 24">
  <path d="M12 2a10 10 0 100 20 10 10 0 000-20zm5.93 6H14a17.7 17.7 0 00-.8-3.34A8.03 8.03 0 0117.93 8zM12 4.07A15.5 15.5 0 0112.94 8h-1.88A15.5 15.5 0 0112 4.07zM8.8 4.66A17.7 17.7 0 008 8H5.07a8.03 8.03 0 013.73-3.34zM4.07 10H8a17.7 17.7 0 00.8 3.34A8.03 8.03 0 014.07 10zM12 19.93A15.5 15.5 0 0111.06 16h1.88A15.5 15.5 0 0112 19.93zM15.2 19.34A17.7 17.7 0 0016 16h2.93a8.03 8.03 0 01-3.73 3.34zM19.93 14H16a17.7 17.7 0 00-.8-3.34A8.03 8.03 0 0119.93 14zM10 10h4a15.4 15.4 0 010 4h-4a15.4 15.4 0 010-4z"/>
</svg>
